<svg id="Space" xmlns="http://www.w3.org/2000/svg" viewBox="0 0 150.01 150.01"><defs><style>.cls-1{fill:currentColor;}</style></defs><title>icon_</title><rect class="cls-1" x="105.01" y="120.01" width="15" height="15"/><rect class="cls-1" x="90.01" y="135.01" width="15" height="15"/><rect class="cls-1" x="120.01" y="105.01" width="15" height="15"/><rect class="cls-1" x="135.01" y="90.01" width="15" height="15"/><rect class="cls-1" x="135.01" y="75.01" width="15" height="15"/><rect class="cls-1" x="119.99" y="89.98" width="15" height="15"/><rect class="cls-1" x="135.01" y="60" width="15" height="15"/><rect class="cls-1" x="135.01" y="45" width="15" height="15"/><rect class="cls-1" x="119.99" y="44.98" width="15" height="15"/><rect class="cls-1" x="135.01" y="30" width="15" height="15"/><rect class="cls-1" x="120.01" y="15" width="15" height="15"/><rect class="cls-1" x="90.01" y="15" width="15" height="15"/><rect class="cls-1" x="75.01" y="15" width="15" height="15"/><rect class="cls-1" x="60" y="15" width="15" height="15"/><rect class="cls-1" x="45" y="15" width="15" height="15"/><rect class="cls-1" x="30" y="15" width="15" height="15"/><rect class="cls-1" x="15" y="15" width="15" height="15"/><rect class="cls-1" y="30" width="15" height="15"/><rect class="cls-1" y="45" width="15" height="15"/><rect class="cls-1" x="14.98" y="44.98" width="15" height="15"/><rect class="cls-1" y="60" width="15" height="15"/><rect class="cls-1" y="75.01" width="15" height="15"/><rect class="cls-1" x="14.98" y="74.98" width="15" height="15"/><rect class="cls-1" y="90.01" width="15" height="15"/><rect class="cls-1" x="15" y="105.01" width="15" height="15"/><rect class="cls-1" x="30" y="105.01" width="15" height="15"/><rect class="cls-1" x="45" y="105.01" width="15" height="15"/><rect class="cls-1" x="60" y="105.01" width="15" height="15"/><rect class="cls-1" x="105.01" y="15" width="15" height="15"/><rect class="cls-1" x="119.99" y="29.97" width="15" height="15"/><rect class="cls-1" x="89.99" y="29.97" width="15" height="15"/><rect class="cls-1" x="74.99" y="29.97" width="15" height="15"/><rect class="cls-1" x="59.99" y="29.97" width="15" height="15"/><rect class="cls-1" x="44.99" y="29.97" width="15" height="15"/><rect class="cls-1" x="29.99" y="29.97" width="15" height="15"/><rect class="cls-1" x="14.98" y="29.97" width="15" height="15"/><rect class="cls-1" x="104.99" y="29.97" width="15" height="15"/><rect class="cls-1" x="119.99" y="59.98" width="15" height="15"/><rect class="cls-1" x="89.99" y="59.98" width="15" height="15"/><rect class="cls-1" x="74.99" y="59.98" width="15" height="15"/><rect class="cls-1" x="59.99" y="59.98" width="15" height="15"/><rect class="cls-1" x="44.99" y="59.98" width="15" height="15"/><rect class="cls-1" x="29.99" y="59.98" width="15" height="15"/><rect class="cls-1" x="14.98" y="59.98" width="15" height="15"/><rect class="cls-1" x="104.99" y="59.98" width="15" height="15"/><rect class="cls-1" x="119.99" y="74.98" width="15" height="15"/><rect class="cls-1" x="89.99" y="89.98" width="15" height="15"/><rect class="cls-1" x="74.99" y="89.98" width="15" height="15"/><rect class="cls-1" x="59.99" y="89.98" width="15" height="15"/><rect class="cls-1" x="44.99" y="89.98" width="15" height="15"/><rect class="cls-1" x="29.99" y="89.98" width="15" height="15"/><rect class="cls-1" x="14.98" y="89.98" width="15" height="15"/><rect class="cls-1" x="104.99" y="89.98" width="15" height="15"/><rect class="cls-1" x="89.99" y="104.98" width="15" height="15"/><rect class="cls-1" x="89.99" y="119.98" width="15" height="15"/><rect class="cls-1" x="74.99" y="104.98" width="15" height="15"/><rect class="cls-1" x="104.99" y="104.98" width="15" height="15"/><rect class="cls-1" x="75" y="120.01" width="15" height="15"/></svg>