<svg id="Space" xmlns="http://www.w3.org/2000/svg" viewBox="0 0 150.01 150.01"><defs><style>.cls-1{fill:currentColor;}</style></defs><title>icon_</title><rect class="cls-1" x="135" y="60" width="15" height="15"/><rect class="cls-1" x="135.01" y="45" width="15" height="15"/><rect class="cls-1" x="135" y="90.01" width="15" height="15"/><rect class="cls-1" x="135.01" y="75" width="15" height="15"/><rect class="cls-1" x="120" y="30" width="15" height="15"/><rect class="cls-1" x="-0.01" y="60" width="15" height="15"/><rect class="cls-1" x="-0.01" y="45" width="15" height="15"/><rect class="cls-1" x="-0.01" y="90.01" width="15" height="15"/><rect class="cls-1" x="-0.01" y="75" width="15" height="15"/><rect class="cls-1" x="14.99" y="30" width="15" height="15"/><rect class="cls-1" x="60" y="30" width="15" height="15"/><rect class="cls-1" x="29.99" y="15" width="15" height="15"/><rect class="cls-1" x="75" y="30" width="15" height="15"/><rect class="cls-1" x="75.01" y="45" width="15" height="15"/><rect class="cls-1" x="60" y="45" width="15" height="15"/><rect class="cls-1" x="75.01" y="60" width="15" height="15"/><rect class="cls-1" x="60" y="60" width="15" height="15"/><rect class="cls-1" x="75" y="75" width="15" height="15"/><rect class="cls-1" x="60" y="75" width="15" height="15"/><rect class="cls-1" x="44.99" width="15" height="15"/><rect class="cls-1" x="60" width="15" height="15"/><rect class="cls-1" x="75" width="15" height="15"/><rect class="cls-1" x="105" y="15" width="15" height="15"/><rect class="cls-1" x="90" width="15" height="15"/><rect class="cls-1" x="14.99" y="105" width="15" height="15"/><rect class="cls-1" x="120" y="105" width="15" height="15"/><rect class="cls-1" x="75" y="105" width="15" height="15"/><rect class="cls-1" x="105" y="120" width="15" height="15"/><rect class="cls-1" x="60" y="105" width="15" height="15"/><rect class="cls-1" x="90" y="135" width="15" height="15"/><rect class="cls-1" x="75" y="135" width="15" height="15"/><rect class="cls-1" x="60" y="135" width="15" height="15"/><rect class="cls-1" x="29.99" y="120" width="15" height="15"/><rect class="cls-1" x="45" y="135" width="15" height="15"/></svg>