<svg id="Space" xmlns="http://www.w3.org/2000/svg" viewBox="0 0 150 150"><defs><style>.cls-1{fill:currentColor;}</style></defs><title>icon_</title><rect class="cls-1" x="135.02" y="60.01" width="15" height="15"/><rect class="cls-1" x="135.02" y="45" width="15" height="15"/><rect class="cls-1" x="135.02" y="90.01" width="15" height="15"/><rect class="cls-1" x="135.02" y="75.01" width="15" height="15"/><rect class="cls-1" x="120.02" y="30" width="15" height="15"/><rect class="cls-1" x="0.01" y="60" width="15" height="15"/><rect class="cls-1" x="0.01" y="45" width="15" height="15"/><rect class="cls-1" x="0.01" y="90.01" width="15" height="15"/><rect class="cls-1" x="0.01" y="75.01" width="15" height="15"/><rect class="cls-1" x="15.01" y="30" width="15" height="15"/><rect class="cls-1" x="59.96" y="-0.03" width="15" height="15"/><rect class="cls-1" x="30.01" y="15" width="15" height="15"/><rect class="cls-1" x="74.96" y="-0.03" width="15" height="15"/><rect class="cls-1" x="74.91" y="14.93" width="15" height="15"/><rect class="cls-1" x="74.91" y="29.93" width="15" height="15"/><rect class="cls-1" x="74.96" y="44.97" width="15" height="15"/><rect class="cls-1" x="59.96" y="44.97" width="15" height="15"/><rect class="cls-1" x="59.91" y="29.93" width="15" height="15"/><rect class="cls-1" x="59.91" y="14.93" width="15" height="15"/><rect class="cls-1" x="60.01" width="15" height="15"/><rect class="cls-1" x="75.01" width="15" height="15"/><rect class="cls-1" x="105.01" y="15" width="15" height="15"/><rect class="cls-1" x="15.01" y="105" width="15" height="15"/><rect class="cls-1" x="120.02" y="105" width="15" height="15"/><rect class="cls-1" x="74.96" y="74.96" width="15" height="15"/><rect class="cls-1" x="105.01" y="120" width="15" height="15"/><rect class="cls-1" x="59.96" y="74.96" width="15" height="15"/><rect class="cls-1" x="59.91" y="74.93" width="15" height="15"/><rect class="cls-1" x="74.96" y="89.96" width="15" height="15"/><rect class="cls-1" x="59.96" y="89.96" width="15" height="15"/><rect class="cls-1" x="59.91" y="89.93" width="15" height="15"/><rect class="cls-1" x="74.91" y="59.93" width="15" height="15"/><rect class="cls-1" x="59.86" y="59.89" width="15" height="15"/><rect class="cls-1" x="90.01" y="135" width="15" height="15"/><rect class="cls-1" x="75.01" y="135" width="15" height="15"/><rect class="cls-1" x="60.01" y="135" width="15" height="15"/><rect class="cls-1" x="30.01" y="120" width="15" height="15"/><rect class="cls-1" x="45.01" y="135" width="15" height="15"/></svg>